<svg width="20" height="11" viewBox="0 0 20 11" fill="none" xmlns="http://www.w3.org/2000/svg">
<path d="M19.375 8.40625C19.2894 8.4551 19.1949 8.48658 19.0971 8.49888C18.9992 8.51118 18.8999 8.50406 18.8048 8.47794C18.7097 8.45182 18.6207 8.4072 18.5429 8.34664C18.4651 8.28608 18.3999 8.21076 18.3513 8.125L16.57 5.0125C15.5344 5.7127 14.3921 6.24018 13.1875 6.57438L13.7378 9.87625C13.7541 9.97346 13.751 10.0729 13.7288 10.1689C13.7065 10.2649 13.6656 10.3556 13.6083 10.4358C13.551 10.516 13.4785 10.5841 13.3949 10.6363C13.3113 10.6884 13.2182 10.7235 13.121 10.7397C13.081 10.7462 13.0405 10.7497 13 10.75C12.8226 10.7497 12.651 10.6866 12.5157 10.5717C12.3805 10.4569 12.2903 10.2978 12.2613 10.1228L11.7203 6.88094C10.5796 7.03969 9.42233 7.03969 8.28158 6.88094L7.74064 10.1228C7.71153 10.2982 7.62109 10.4575 7.48545 10.5723C7.3498 10.6872 7.17776 10.7502 7.00001 10.75C6.95856 10.7498 6.91718 10.7464 6.87626 10.7397C6.77904 10.7235 6.68596 10.6884 6.60233 10.6363C6.5187 10.5841 6.44617 10.516 6.38888 10.4358C6.33159 10.3556 6.29067 10.2649 6.26845 10.1689C6.24623 10.0729 6.24315 9.97346 6.25939 9.87625L6.81251 6.57438C5.60842 6.23912 4.4667 5.71069 3.43189 5.00969L1.65626 8.125C1.60702 8.21081 1.54135 8.28608 1.46302 8.34652C1.38468 8.40695 1.29521 8.45136 1.19971 8.47722C1.10421 8.50307 1.00455 8.50986 0.906431 8.49721C0.808307 8.48455 0.713637 8.45269 0.627826 8.40344C0.542015 8.35419 0.466745 8.28853 0.406311 8.21019C0.345878 8.13186 0.301466 8.04239 0.275611 7.94689C0.249755 7.85139 0.242963 7.75173 0.255622 7.65361C0.268281 7.55548 0.300143 7.46081 0.349388 7.375L2.22439 4.09375C1.56579 3.52476 0.960186 2.89719 0.415013 2.21875C0.347025 2.14284 0.295219 2.05387 0.262759 1.95727C0.230299 1.86067 0.217865 1.75847 0.226217 1.65691C0.234568 1.55535 0.26353 1.45655 0.311334 1.36655C0.359138 1.27655 0.424781 1.19724 0.504257 1.13346C0.583733 1.06967 0.675374 1.02275 0.773586 0.995564C0.871798 0.968374 0.974521 0.961484 1.07548 0.975315C1.17645 0.989146 1.27353 1.02341 1.36082 1.07601C1.4481 1.12861 1.52374 1.19844 1.58314 1.28125C3.13939 3.20688 5.86189 5.5 10 5.5C14.1381 5.5 16.8606 3.20406 18.4169 1.28125C18.4756 1.19675 18.5511 1.12523 18.6386 1.07115C18.7262 1.01707 18.8239 0.98158 18.9257 0.966893C19.0276 0.952205 19.1314 0.958632 19.2306 0.985775C19.3299 1.01292 19.4225 1.06019 19.5027 1.12466C19.5829 1.18913 19.649 1.26942 19.6968 1.36052C19.7447 1.45162 19.7732 1.5516 19.7808 1.65422C19.7883 1.75684 19.7747 1.85992 19.7407 1.95704C19.7067 2.05416 19.653 2.14324 19.5831 2.21875C19.038 2.89719 18.4324 3.52476 17.7738 4.09375L19.6488 7.375C19.6991 7.46054 19.732 7.55521 19.7454 7.65353C19.7589 7.75186 19.7527 7.85188 19.7273 7.9478C19.7018 8.04372 19.6576 8.13364 19.5971 8.21233C19.5366 8.29103 19.4611 8.35694 19.375 8.40625Z" fill="#0C5A7A"/>
</svg>
